#!OML:ASF E:\Steps\Project 1\Capture day 1\Session 2\Subject.ASF
:FULLY-SPECIFIED
:DEGREES
238
root 16.6215 16.5977 21.8539 -157.379 -12.6832 170.702
lowerback -18.3603 -0.973558 -6.70955
upperback 3.26149 0.364273 -1.0116
thorax 14.0719 -0.353257 2.7779
lowerneck -1.38085 -0.676561 -2.80384
upperneck 21.2267 -3.41519 5.59229
head 6.80724 -2.01847 1.99696
rclavicle 4.07509e-014 -1.19271e-014
rhumerus -32.7572 -14.7336 -77.5553
rradius 36.2003
rwrist -1.92345
rhand -10.3488 -412.883
rfingers 7.12502
rthumb -164.352 97.7295
lclavicle 4.07509e-014 -1.19271e-014
lhumerus -28.7634 3.27917 81.3744
lradius 26.6272
lwrist -2.91177
lhand -21.7162 -13.7188
lfingers 7.12502
lthumb 4.68284 16.2094
rfemur -19.7039 4.49919 12.9369
rtibia 10.6856
rfoot -20.6943 -13.778
rtoes -8.63648
lfemur -72.3705 -6.91736 -12.2585
ltibia 64.3478
lfoot -10.5563 0.493411
ltoes -47.5913
239
root 16.5929 16.5748 21.8628 -156.093 -11.5055 171.174
lowerback -19.4827 -0.572102 -6.42873
upperback 2.87371 0.90165 -0.980658
thorax 14.2281 -0.0856338 2.8271
lowerneck -1.6167 -0.7096 -2.75324
upperneck 21.1128 -3.37568 5.42004
head 6.80731 -1.98982 1.93385
rclavicle -7.55382e-015 4.77083e-015
rhumerus -32.4306 -14.6348 -77.5432
rradius 36.154
rwrist -2.16074
rhand -10.3719 -412.7
rfingers 7.12502
rthumb -164.375 97.9111
lclavicle -7.55382e-015 4.77083e-015
lhumerus -28.6253 3.1592 81.5825
lradius 27.0055
lwrist -2.63647
lhand -21.8587 -13.665
lfingers 7.12502
lthumb 4.54523 16.2663
rfemur -22.2447 4.59497 12.9734
rtibia 11.9037
rfoot -20.7506 -12.9845
rtoes -9.8634
lfemur -73.863 -5.59625 -11.8703
ltibia 64.366
lfoot -10.5765 0.641268
ltoes -47.9697
240
root 16.5626 16.5746 21.8487 -155.85 -11.1578 171.277
lowerback -19.5763 -0.456883 -6.30926
upperback 2.77364 1.02674 -0.972734
thorax 14.1531 -0.0153025 2.8084
lowerneck -1.57127 -0.62587 -2.77091
upperneck 21.0018 -3.23432 5.40986
head 6.75694 -1.92096 1.94341
rclavicle -1.13307e-014 -7.95139e-016
rhumerus -32.3691 -14.5641 -77.499
rradius 36.1672
rwrist -2.1175
rhand -10.757 -411.406
rfingers 7.12502
rthumb -164.745 99.1767
lclavicle -1.13307e-014 -7.95139e-016
lhumerus -28.6133 3.10573 81.6584
lradius 27.1971
lwrist -2.81939
lhand -22.3926 -13.6632
lfingers 7.12502
lthumb 4.02964 16.2785
rfemur -22.7139 4.75739 12.8554
rtibia 12.2084
rfoot -20.9124 -12.8521
rtoes -10.0672
lfemur -73.9523 -5.408 -11.7357
ltibia 64.045
lfoot -10.5282 0.415764
ltoes -47.6058
241
root 16.5279 16.5763 21.8284 -155.911 -11.2515 171.298
lowerback -19.4037 -0.469658 -6.14584
upperback 2.75379 0.953922 -0.952815
thorax 14.0345 -0.0311054 2.71397
lowerneck -1.3708 -0.549856 -2.85351
upperneck 21.0161 -3.17849 5.56157
head 6.72634 -1.90048 2.01137
rclavicle 5.76476e-015 -4.77083e-015
rhumerus -32.4275 -14.4049 -77.5283
rradius 36.4182
rwrist -2.04435
rhand -10.672 -411.108
rfingers 7.12502
rthumb -164.664 99.4809
lclavicle 5.76476e-015 -4.77083e-015
lhumerus -28.6989 2.99412 81.7057
lradius 27.4141
lwrist -2.77299
lhand -22.7533 -13.7815
lfingers 7.12502
lthumb 3.68136 16.1665
rfemur -22.5231 4.76667 12.8094
rtibia 12.3237
rfoot -21.2773 -12.8476
rtoes -9.8776
lfemur -73.6839 -5.73827 -11.5744
ltibia 63.6443
lfoot -10.4261 0.0613595
ltoes -47.1994
242
root 16.5008 16.5739 21.8005 -155.823 -11.0292 171.349
lowerback -19.5469 -0.424344 -6.27348
upperback 2.75737 1.04651 -0.854612
thorax 14.1122 -0.00628673 2.92862
lowerneck -1.29719 -0.589577 -2.9912
upperneck 21.0388 -3.24507 5.60785
head 6.72595 -1.94367 2.04606
rclavicle 1.78906e-015 -2.3059e-014
rhumerus -32.304 -14.402 -77.3965
rradius 36.4926
rwrist -2.19209
rhand -10.4579 -411.905
rfingers 7.12502
rthumb -164.457 98.6995
lclavicle 1.78906e-015 -2.3059e-014
lhumerus -28.637 3.04254 81.8453
lradius 27.5827
lwrist -2.61443
lhand -22.5721 -14.1129
lfingers 7.12502
lthumb 3.85636 15.8319
rfemur -22.6468 5.17315 12.6625
rtibia 12.5064
rfoot -21.4788 -13.0588
rtoes -9.95553
lfemur -73.4616 -5.695 -11.4396
ltibia 63.2181
lfoot -10.3294 -0.105042
ltoes -46.7576
243
root 16.4677 16.5759 21.7736 -155.829 -11.1994 171.258
lowerback -19.51 -0.466639 -6.30261
upperback 2.84214 0.996875 -0.821918
thorax 14.195 -0.0362967 2.96672
lowerneck -1.34021 -0.682435 -3.00129
upperneck 21.0149 -3.36192 5.59199
head 6.73148 -1.99818 2.03499
rclavicle -1.0138e-014 -1.98785e-014
rhumerus -32.1151 -14.5021 -77.3414
rradius 36.572
rwrist -2.39848
rhand -10.7535 -413.097
rfingers 7.12502
rthumb -164.742 97.4858
lclavicle -1.0138e-014 -1.98785e-014
lhumerus -28.3983 3.03483 81.852
lradius 27.6685
lwrist -2.46779
lhand -22.2116 -14.2278
lfingers 7.12502
lthumb 4.20445 15.7104
rfemur -22.3621 5.17511 12.4898
rtibia 12.331
rfoot -21.4711 -13.3192
rtoes -9.8837
lfemur -73.1713 -6.06944 -11.4331
ltibia 62.7745
lfoot -10.0536 -0.391242
ltoes -46.6992
244
root 16.4331 16.5912 21.7353 -156.429 -12.1929 170.679
lowerback -18.7218 -0.801929 -6.5864
upperback 3.10622 0.575307 -0.884564
thorax 14.0811 -0.249042 2.9191
lowerneck -1.29965 -0.713822 -2.86808
upperneck 21.1016 -3.4455 5.60726
head 6.75498 -2.03335 2.01198
rclavicle -7.55382e-015 1.11319e-014
rhumerus -32.1489 -14.526 -77.4189
rradius 36.8754
rwrist -2.61456
rhand -10.806 -412.922
rfingers 7.12502
rthumb -164.793 97.657
lclavicle -7.55382e-015 1.11319e-014
lhumerus -28.3499 2.7149 81.7942
lradius 27.8978
lwrist -2.26605
lhand -22.1418 -14.0849
lfingers 7.12502
lthumb 4.27187 15.852
rfemur -20.5662 5.16651 12.0188
rtibia 11.3768
rfoot -21.5534 -14.211
rtoes -8.68127
lfemur -72.0995 -7.52784 -11.7938
ltibia 62.1268
lfoot -9.72178 -0.922284
ltoes -47.305
245
root 16.4058 16.5748 21.7286 -155.606 -11.3421 171.218
lowerback -19.5273 -0.507772 -6.24436
upperback 2.83774 0.930011 -0.834054
thorax 14.2074 -0.0617961 2.89919
lowerneck -1.38493 -0.733897 -3.1324
upperneck 21.8195 -3.54092 5.3839
head 7.00748 -2.13874 1.97609
rclavicle -1.23246e-014 -2.14687e-014
rhumerus -32.14 -14.4823 -77.4397
rradius 37.1391
rwrist -2.67194
rhand -10.6434 -411.773
rfingers 7.12502
rthumb -164.636 98.8174
lclavicle -1.23246e-014 -2.14687e-014
lhumerus -28.4293 2.7057 81.802
lradius 28.1965
lwrist -2.30195
lhand -22.1695 -14.1062
lfingers 7.12502
lthumb 4.24506 15.8313
rfemur -22.2331 5.70786 12.1406
rtibia 12.1174
rfoot -21.5964 -13.9323
rtoes -9.06079
lfemur -72.9894 -6.4663 -11.3331
ltibia 62.0996
lfoot -9.66748 -0.594578
ltoes -47.9922
246
root 16.3709 16.5714 21.7042 -155.39 -10.9577 171.374
lowerback -19.7803 -0.409165 -6.18593
upperback 2.81628 1.06081 -0.78721
thorax 14.3191 -0.00317612 2.96348
lowerneck -2.94566 -0.0729486 -2.58723
upperneck 22.7061 -2.49311 4.69107
head 7.51503 -1.60461 1.71971
rclavicle -3.55825e-014 4.77083e-015
rhumerus -31.9762 -14.4044 -77.4149
rradius 37.2045
rwrist -2.58068
rhand -11.2162 -412.01
rfingers 7.12502
rthumb -165.188 98.5398
lclavicle -3.55825e-014 4.77083e-015
lhumerus -28.4189 2.77638 81.8396
lradius 28.4074
lwrist -2.34928
lhand -22.0602 -14.2705
lfingers 7.12502
lthumb 4.35064 15.6648
rfemur -22.5227 5.75144 12.1075
rtibia 12.2114
rfoot -21.5569 -13.7684
rtoes -10.1501
lfemur -72.9359 -6.21805 -11.24
ltibia 61.7903
lfoot -9.60526 -0.58606
ltoes -48.3509
247
root 16.3331 16.5712 21.6783 -155.268 -10.9132 171.28
lowerback -19.6849 -0.411096 -6.21169
upperback 2.7536 1.05821 -0.840657
thorax 14.1889 0.000853365 2.91486
lowerneck -3.26065 -0.192938 -2.54414
upperneck 23.2023 -2.75817 4.75875
head 7.74807 -1.73138 1.71225
rclavicle 2.10712e-014 -2.38542e-015
rhumerus -31.8785 -14.3678 -77.4679
rradius 37.1805
rwrist -2.60476
rhand -10.579 -412.787
rfingers 7.12502
rthumb -164.574 97.8087
lclavicle 2.10712e-014 -2.38542e-015
lhumerus -28.4753 2.25592 81.8887
lradius 28.6179
lwrist -1.96522
lhand -22.1879 -14.0746
lfingers 7.12502
lthumb 4.22734 15.8632
rfemur -22.4064 5.5334 11.8983
rtibia 12.0763
rfoot -21.554 -13.7147
rtoes -10.6773
lfemur -72.7722 -6.53382 -11.2286
ltibia 61.4929
lfoot -9.51604 -0.941256
ltoes -47.3404
248
root 16.2963 16.5662 21.6517 -155.121 -10.8913 171.363
lowerback -19.7867 -0.359811 -6.06908
upperback 2.73305 1.10099 -0.864607
thorax 14.2226 0.0322641 2.82122
lowerneck -3.91121 0.157106 -1.86998
upperneck 23.5694 -2.18992 4.14031
head 7.95585 -1.43836 1.43408
rclavicle 9.34288e-015 -2.06736e-014
rhumerus -31.7406 -14.5676 -77.4933
rradius 37.2078
rwrist -2.6584
rhand -11.0315 -412.782
rfingers 7.12502
rthumb -165.01 97.7811
lclavicle 9.34288e-015 -2.06736e-014
lhumerus -28.412 1.73142 81.9448
lradius 28.7509
lwrist -1.67446
lhand -22.4974 -13.9321
lfingers 7.12502
lthumb 3.92841 16.0114
rfemur -22.3996 5.62274 11.8307
rtibia 11.987
rfoot -21.6976 -13.7528
rtoes -10.007
lfemur -72.775 -6.74537 -10.9949
ltibia 61.345
lfoot -9.47617 -1.25877
ltoes -46.5003
249
root 16.2691 16.5684 21.6248 -155.352 -11.1957 171.492
lowerback -19.3914 -0.43047 -6.05396
upperback 2.75371 0.96027 -0.719449
thorax 14.0227 -0.0292589 2.9294
lowerneck -5.02004 0.819289 -1.16305
upperneck 24.5181 -1.20501 3.34205
head 8.44224 -0.968188 1.12673
rclavicle -4.96962e-015 4.13472e-014
rhumerus -31.7738 -14.5841 -77.383
rradius 37.3456
rwrist -2.79324
rhand -11.1212 -412.36
rfingers 7.12502
rthumb -165.096 98.1965
lclavicle -4.96962e-015 4.13472e-014
lhumerus -28.4992 1.72314 81.9846
lradius 28.8906
lwrist -2.01841
lhand -22.5646 -13.8571
lfingers 7.12502
lthumb 3.86356 16.0876
rfemur -21.7747 6.00695 11.9434
rtibia 11.6241
rfoot -21.8917 -14.2104
rtoes -8.84879
lfemur -72.4027 -7.08711 -10.781
ltibia 61.1336
lfoot -9.40557 -1.61823
ltoes -47.0961
250
root 16.2357 16.5798 21.5914 -155.468 -11.3761 171
lowerback -18.9719 -0.66015 -6.51634
upperback 2.84491 0.741611 -0.777287
thorax 13.9023 -0.16197 3.0546
lowerneck -4.03146 0.420801 -1.66674
upperneck 23.2852 -1.6835 3.7935
head 7.86184 -1.18933 1.32561
rclavicle 2.04748e-014 0
rhumerus -31.5222 -14.3704 -77.4584
rradius 37.3568
rwrist -2.90406
rhand -9.80039 -414.589
rfingers 7.12502
rthumb -163.824 96.0658
lclavicle 2.04748e-014 0
lhumerus -28.4949 1.88029 81.9455
lradius 29.0436
lwrist -2.45041
lhand -22.7564 -13.3094
lfingers 7.12502
lthumb 3.6783 16.6386
rfemur -21.0797 6.17852 11.3127
rtibia 11.1859
rfoot -21.9463 -14.8381
rtoes -9.25179
lfemur -71.8037 -7.68774 -11.2823
ltibia 60.6321
lfoot -9.2345 -2.06564
ltoes -46.6798
251
root 16.1979 16.5778 21.5671 -155.262 -11.2359 171.027
lowerback -19.1221 -0.683953 -6.55541
upperback 2.9092 0.728165 -0.706542
thorax 14.0686 -0.181045 3.15458
lowerneck -3.85482 0.244136 -1.8782
upperneck 22.8145 -1.84896 3.84174
head 7.67949 -1.26888 1.36597
rclavicle -1.43125e-014 6.36111e-015
rhumerus -31.1168 -14.2443 -77.4279
rradius 37.3762
rwrist -2.76375
rhand -9.95268 -412.444
rfingers 7.12502
rthumb -163.971 98.1996
lclavicle -1.43125e-014 6.36111e-015
lhumerus -28.2435 2.13013 81.9807
lradius 29.0521
lwrist -2.44406
lhand -23.0368 -13.9493
lfingers 7.12502
lthumb 3.40754 16.0032
rfemur -21.2105 6.17153 11.1663
rtibia 11.1979
rfoot -22.0463 -14.8281
rtoes -9.8746
lfemur -71.788 -7.6716 -11.3271
ltibia 60.3806
lfoot -9.12129 -2.36938
ltoes -46.19
